<svg width="1505" height="341" viewBox="0 0 1505 341" fill="none" xmlns="http://www.w3.org/2000/svg">
<path d="M1307.4 340.368C1254.95 336.613 1220.56 325.269 1201.93 305.571C1183 285.559 1173.07 263.714 1169.74 234.731C1168.73 226.011 1168.75 223.706 1169.8 222.432C1170.95 221.047 1177.48 220.865 1226.07 220.865C1268.85 220.865 1281.27 221.144 1282.04 222.12C1282.59 222.81 1283.29 226.764 1283.61 230.905C1284.41 241.393 1286.74 247.391 1292.23 253.045C1296.09 257.014 1298.19 258.218 1304.89 260.3C1317.35 264.174 1328.91 265.418 1345.55 264.677C1362.76 263.91 1376.98 261.207 1383.31 257.5C1396.76 249.614 1395.28 232.776 1380.46 225.268C1374.09 222.038 1364.76 220.033 1324.86 213.309C1252.05 201.042 1212.39 188.775 1192.78 172.462C1176.71 159.083 1168.1 135.271 1169.45 107.918C1170.87 79.1897 1180.25 57.6929 1200.94 35.7613C1223.69 11.6364 1268.06 -0.0320738 1336.91 6.6211e-05C1405.17 0.0304228 1449.17 12.4107 1471.79 37.9531C1492.03 60.7919 1501.19 81.8461 1503.68 111.189L1504.39 119.48L1447.31 119.221L1390.23 118.962L1389.48 111.432C1387.34 89.7926 1379.82 82.2323 1355.94 77.7315C1344.96 75.6624 1315.02 76.233 1303.88 78.7233C1292.96 81.1663 1284.82 85.6005 1281.8 90.7465C1277.42 98.2347 1278.76 106.612 1285.44 113.329C1291.73 119.652 1295.01 120.501 1350.07 130.027C1416.28 141.485 1447.71 149.742 1471.55 161.946C1493.57 173.218 1504.13 193.933 1504.16 225.885C1504.2 251.244 1497.98 271.36 1483.73 292.118C1464.91 319.517 1439.76 331.771 1388.72 338.415C1371.06 340.713 1327 341.772 1307.4 340.368L1307.4 340.368ZM0.670256 336.665C1.2273 334.445 15.3907 287.735 36.8474 217.351C39.2039 209.621 43.7168 194.712 46.8758 184.22C50.0348 173.728 53.1747 164.561 53.854 163.848C54.7187 162.94 55.8183 162.826 57.5221 163.466C58.86 163.969 64.9246 165.141 70.9985 166.072C84.8768 168.199 87.5706 168.87 95.4224 172.162C100.073 174.111 104.643 175.06 112.49 175.703C127.919 176.969 133.055 178.008 136.23 180.505C137.774 181.72 140.398 182.714 142.061 182.714C145.157 182.714 161.567 186.277 165.624 187.83C167.639 188.602 167.882 189.384 167.882 195.087C167.882 200.203 167.482 201.841 165.874 203.296C164.77 204.295 163.867 205.645 163.867 206.295C163.867 208.379 156.267 213.666 152.22 214.398C150.067 214.787 147.401 215.548 146.297 216.088C143.343 217.534 126.719 234.159 126.719 235.668C126.719 236.378 125.407 239.324 123.801 242.215C120.349 248.434 114.146 264.868 113.102 270.562C112.199 275.486 104.574 291.911 98.2641 302.521C95.6922 306.847 93.5876 310.704 93.5876 311.093C93.5876 311.483 92.2509 313.365 90.6166 315.277C88.9827 317.189 87.6176 319.205 87.5831 319.757C87.492 321.203 77.713 331.153 72.0417 335.57L67.2077 339.335H33.6041H0L0.670256 336.665ZM84.5524 337.863C84.5524 337.054 85.7945 335.096 87.3131 333.511C94.7508 325.749 104.057 309.843 110.991 293.041C113.636 286.631 117.605 278.984 119.811 276.049C124.24 270.154 130.6 257.519 133.44 248.972C136.012 241.233 140.016 236.458 147.706 231.957C151.348 229.825 155.43 226.902 156.777 225.461C159.224 222.844 166.975 217.853 168.594 217.853C169.388 217.853 172.117 223.279 172.313 225.25C172.363 225.729 169.604 226.98 166.187 228.029C161.631 229.427 158.498 231.285 154.435 234.998C146.038 242.673 142.531 251.455 141.235 268.052C139.205 294.063 149.822 317.738 168.043 327.831C172.875 330.508 174.297 330.8 182.44 330.792C190.426 330.784 192.112 330.449 196.948 327.912C207.804 322.217 216.441 310.578 221.253 295.16C223.259 288.732 223.597 285.572 223.563 273.574C223.506 254.035 220.622 244.744 211.888 235.973C207.369 231.435 199.108 226.916 195.3 226.899C191.891 226.884 191.681 225.313 194.492 220.859L197.078 216.763L200.087 219.065C201.742 220.331 205.354 223.287 208.113 225.634C210.872 227.981 215.29 230.997 217.932 232.335C223.973 235.397 229.289 241.843 231.639 248.957C235.409 260.37 241.462 272.061 246.726 278.092C247.931 279.473 251.076 285.798 253.715 292.148C261.658 311.264 270.585 326.537 277.732 333.235C279.16 334.574 280.328 336.494 280.328 337.502C280.328 339.264 276.543 339.335 182.44 339.335C97.1214 339.335 84.5524 339.146 84.5524 337.863V337.863ZM292.878 335.786C286.621 330.343 277.329 320.854 277.322 319.902C277.319 319.429 275.961 317.331 274.304 315.239C272.648 313.148 271.293 311.22 271.293 310.957C271.293 310.693 268.842 306.149 265.846 300.86C259.711 290.027 252.217 273.878 252.217 271.491C252.217 268.691 247.411 255.493 243.058 246.338C240.728 241.439 238.334 236.289 237.739 234.894C237.142 233.499 232.78 228.685 228.043 224.196C219.927 216.505 215.357 213.875 210.05 213.838C208.412 213.827 202.857 208.747 199.257 203.968C197.495 201.63 196.998 199.637 196.998 194.913C196.998 191.582 197.482 188.557 198.073 188.192C199.412 187.364 210.254 184.899 219.696 183.276C223.701 182.587 228.176 181.093 229.891 179.871C231.814 178.502 234.453 177.694 237.002 177.694C239.231 177.694 241.297 177.302 241.593 176.823C241.889 176.343 246.773 175.738 252.445 175.477C260.726 175.095 264.045 174.459 269.284 172.246C275.905 169.45 282.398 167.679 287.858 167.181C289.514 167.03 294.033 166.35 297.898 165.67C301.763 164.989 306.533 164.215 308.499 163.948L312.071 163.464L319.402 187.396C323.435 200.558 328.673 217.652 331.044 225.383C333.415 233.114 341.072 258.188 348.06 281.104C355.047 304.02 361.856 326.105 363.191 330.182C364.526 334.26 365.377 337.987 365.081 338.465C364.785 338.943 349.323 339.323 330.719 339.308L296.894 339.281L292.878 335.787V335.786ZM395.786 171.171V2.99109L487.283 3.24724L578.781 3.50334L589.538 31.6148C595.453 47.0761 605.378 73.0541 611.593 89.3436C617.808 105.633 630.243 138.162 639.226 161.63C648.209 185.098 658.138 211.107 661.289 219.428C667.396 235.553 668.408 237.724 669.369 236.763C669.703 236.427 670.294 183.807 670.678 119.828L671.378 3.50334H727.601H783.824L784.078 171.424L784.332 339.345L693.77 339.089L603.208 338.833L597.94 325.279C595.042 317.825 586.593 295.687 579.163 276.084C513.732 103.439 509.934 93.6586 508.995 95.4181C508.862 95.6666 508.524 150.537 508.242 217.351L507.731 338.833L451.758 339.092L395.787 339.352L395.786 171.171ZM926.557 338.665C926.188 338.297 925.887 280.065 925.887 209.26C925.887 92.7947 925.735 80.4648 924.299 79.9135C923.425 79.5785 901.514 79.3041 875.606 79.3041H828.501V41.1497V2.99526L982.863 3.2495L1137.22 3.50374V41.153V78.8022L1089.03 79.3042L1040.84 79.8062L1040.33 209.32C1040.05 280.552 1039.71 338.946 1039.58 339.084C1039 339.683 927.16 339.269 926.557 338.666V338.665ZM159.227 176.303C156.951 175.688 154.467 174.676 153.705 174.055C149.121 170.314 132.507 165.492 125.015 165.728C122.363 165.811 115.901 165.152 110.656 164.262C105.41 163.373 97.5036 162.716 93.086 162.804C86.6265 162.931 82.8923 162.321 74.0108 159.685C67.9364 157.882 61.6884 156.171 60.1257 155.881C58.5635 155.592 57.0755 154.809 56.8194 154.141C56.5614 153.472 58.3661 146.413 60.8261 138.453C63.2861 130.494 69.4334 110.427 74.4874 93.8618C89.9017 43.3367 91.6175 38.1403 92.8785 38.1557C94.1652 38.1708 95.7402 41.0195 105.915 61.7345C113.626 77.4323 114.36 79.3757 115.018 85.83C115.72 92.7093 120.835 107.512 124.609 113.583C126.322 116.338 127.723 119.519 127.723 120.65C127.723 121.782 129.232 124.802 131.075 127.361C132.919 129.919 135.884 135.176 137.664 139.041C141.679 147.757 143.181 149.39 153.826 156.611C164.577 163.902 166.657 166.167 167.06 171.018C167.495 176.261 165.084 177.888 159.227 176.303V176.303ZM199.577 176.468C198.523 175.878 198.002 174.142 198.002 171.222C198.002 167.456 198.505 166.417 201.673 163.635C203.692 161.862 208.323 158.484 211.964 156.128C220.777 150.424 223.206 147.641 228.185 137.535C230.497 132.841 233.462 127.724 234.773 126.163C236.084 124.602 237.157 122.472 237.157 121.429C237.157 120.386 238.713 116.693 240.615 113.223C244.836 105.52 249.846 90.7907 250.784 83.3202C251.613 76.7278 258.192 61.6701 267.152 45.8579C270.995 39.0769 272.579 37.0163 273.317 37.8385C273.715 38.281 279.12 55.3593 285.33 75.7903C291.54 96.2213 299.28 121.582 302.53 132.148C307.771 149.185 309.287 155.607 308.066 155.607C307.862 155.607 303.23 156.774 297.775 158.202C292.321 159.629 286.051 161.265 283.842 161.838C281.633 162.411 275.44 162.816 270.08 162.739C263.713 162.648 257.265 163.268 251.486 164.53C246.621 165.592 241.444 166.232 239.982 165.952C235.242 165.046 218.766 169.291 213.062 172.888C208.471 175.783 201.608 177.605 199.577 176.468V176.468ZM150.643 134.725C147.112 130.982 143.048 125.439 141.612 122.406C140.176 119.373 138.271 116.286 137.378 115.545C136.486 114.804 135.755 113.208 135.755 111.999C135.755 106.104 126.745 84.1466 121.743 77.8524C120.13 75.8236 117.818 71.1413 116.604 67.4472C114.367 60.6397 108.181 47.2052 102.647 37.1371C100.978 34.1001 99.612 31.1058 99.612 30.4832C99.612 29.8605 98.9341 28.7887 98.1062 28.1013C95.9691 26.3278 96.3486 21.8514 99.4685 12.0376L102.182 3.5038L123.271 3.23358L144.36 2.96341L144.322 8.92335C144.284 13.6881 144.724 15.3529 146.471 17.2255C147.672 18.5137 148.977 20.9231 149.37 22.5797C149.763 24.2363 150.393 26.0434 150.77 26.5956C151.145 27.1478 152.068 29.6327 152.818 32.1175C153.567 34.6023 154.71 37.3131 155.356 38.1414C156.002 38.9697 156.829 40.325 157.194 41.1533C157.558 41.9816 158.791 44.2058 159.933 46.096C162.159 49.7802 162.226 49.3909 157.837 58.221C156.876 60.1537 155.773 63.0746 155.386 64.712C154.998 66.3494 153.82 69.5799 152.767 71.8907C151.714 74.2016 150.574 78.5092 150.232 81.4633C149.413 88.5409 151.283 101.432 153.861 106.485C156.924 112.488 162.692 118.46 165.427 118.46C169.484 118.46 169.233 120.477 164.629 124.888C160.33 129.007 158.844 132.403 158.844 138.104C158.844 142.316 157.139 141.614 150.64 134.726L150.643 134.725ZM206.034 137.6C206.034 131.769 204.478 128.426 199.865 124.345C195.563 120.54 195.417 118.459 199.45 118.459C202.554 118.459 208.549 111.74 211.884 104.524C214.202 99.5069 214.496 97.6028 214.529 87.3361C214.567 77.4605 214.26 75.2036 212.435 71.7345C211.261 69.5038 209.988 66.2503 209.605 64.5045C209.221 62.7586 207.128 58.577 204.953 55.2118C200.865 48.8865 200.511 45.6614 203.622 43.0792C204.396 42.4368 205.03 41.4373 205.03 40.8581C205.03 40.279 205.627 39.0919 206.357 38.2201C207.087 37.3484 208.298 34.6021 209.048 32.1172C209.798 29.6324 210.719 27.1475 211.096 26.5953C211.472 26.0431 212.102 24.236 212.495 22.5794C212.888 20.9229 214.193 18.5135 215.395 17.2252C217.14 15.3545 217.572 13.687 217.544 8.9424L217.506 3.0018H240.264H263.021L265.649 11.4316C268.62 20.9593 268.978 26.2706 266.772 28.1013C265.943 28.7887 265.236 30.0864 265.199 30.9852C265.161 31.8839 263.829 34.8781 262.236 37.6391C257.101 46.5391 252.368 56.6856 249.08 65.8442C247.314 70.7624 244.785 76.0961 243.459 77.6969C238.584 83.5823 229.123 106.36 229.123 112.21C229.123 113.303 228.529 114.69 227.805 115.291C227.08 115.893 225.045 119.224 223.283 122.693C220.324 128.52 209.029 141.551 206.938 141.551C206.439 141.551 206.031 139.773 206.031 137.6H206.034ZM162.57 41.6428C160.534 38.5057 157.688 32.2555 156.246 27.7533C154.804 23.2511 153.218 18.7829 152.721 17.8241C152.225 16.8653 151.819 13.138 151.819 9.54132V3.0018H180.934H210.05V9.54132C210.05 13.138 209.644 16.8653 209.147 17.8241C208.651 18.7829 207.046 23.3079 205.58 27.8795C203.197 35.3118 198.215 44.5642 195.65 46.3214C195.129 46.6792 193.405 46.5198 191.821 45.9677C188.984 44.9786 175.316 45.4199 169.336 46.6936C166.469 47.3043 166.034 46.9797 162.57 41.6426V41.6428Z" fill="#679186"/>
</svg>
